<?xml version="1.0" encoding="UTF-8"?>
<svg version="1.1" xmlns="http://www.w3.org/2000/svg" width="1152" height="648">
<path d="M0 0 C380.16 0 760.32 0 1152 0 C1152 213.84 1152 427.68 1152 648 C771.84 648 391.68 648 0 648 C0 434.16 0 220.32 0 0 Z " fill="#FEFEFE" transform="translate(0,0)"/>
<path d="M0 0 C2.64 0 5.28 0 8 0 C8 10.56 8 21.12 8 32 C21.86 32 35.72 32 50 32 C50 21.44 50 10.88 50 0 C52.64 0 55.28 0 58 0 C58.1238948 4.89289165 58.21447509 9.78486427 58.2746582 14.67895508 C58.29975347 16.34252839 58.33383796 18.00599196 58.37719727 19.66918945 C58.4380746 22.06489153 58.46625769 24.45913251 58.48828125 26.85546875 C58.51408768 27.5952446 58.5398941 28.33502045 58.56648254 29.09721375 C58.56858376 32.99385272 58.13002383 34.82606461 55.7734375 37.97851562 C52.83065974 40.12342759 51.70027949 40.60323482 48.13671875 40.48828125 C46.80737305 40.46411133 46.80737305 40.46411133 45.45117188 40.43945312 C44.0831543 40.37661133 44.0831543 40.37661133 42.6875 40.3125 C41.29047852 40.27866211 41.29047852 40.27866211 39.86523438 40.24414062 C37.57612873 40.18544561 35.28785439 40.09577065 33 40 C33 43.63 33 47.26 33 51 C34.26070312 50.98952637 35.52140625 50.97905273 36.8203125 50.96826172 C41.5242221 50.93189889 46.22811942 50.90904047 50.93212891 50.89013672 C52.96307468 50.88011614 54.99400617 50.86649599 57.02490234 50.84912109 C59.95413758 50.82469883 62.88318106 50.81347721 65.8125 50.8046875 C67.16142334 50.78920364 67.16142334 50.78920364 68.53759766 50.77340698 C77.49805811 50.77183357 85.64855176 52.31748279 92.59375 58.39453125 C99.29442236 65.4199811 103.1297105 75.69528564 103.12025452 85.34039307 C103.12231651 86.96415863 103.12231651 86.96415863 103.12442017 88.62072754 C103.12082489 89.80324097 103.11722961 90.98575439 103.11352539 92.20410156 C103.11367142 93.4531427 103.11381744 94.70218384 103.1139679 95.98907471 C103.11339074 99.41024003 103.10837653 102.83134495 103.10139394 106.25249958 C103.09514131 109.82928095 103.09455509 113.40606313 103.09336853 116.98284912 C103.09026085 123.75425661 103.08205504 130.52564795 103.07201904 137.29704833 C103.06084043 145.0067866 103.05534304 152.71652565 103.05032361 160.42627001 C103.03987197 176.28418961 103.0220819 192.14209209 103 208 C106.63 208 110.26 208 114 208 C113.85691406 206.53240234 113.85691406 206.53240234 113.7109375 205.03515625 C112.11733835 186.18991979 112.11733835 186.18991979 118 179 C121.544511 177.26431727 124.41813318 176.74415412 128.34375 176.734375 C129.34277344 176.73179687 130.34179688 176.72921875 131.37109375 176.7265625 C132.40363281 176.73429688 133.43617188 176.74203125 134.5 176.75 C135.53253906 176.74226562 136.56507813 176.73453125 137.62890625 176.7265625 C138.62792969 176.72914063 139.62695312 176.73171875 140.65625 176.734375 C141.56181641 176.73663086 142.46738281 176.73888672 143.40039062 176.74121094 C147.72156332 177.17138027 150.30008625 178.24176011 153.25 181.4375 C155.94095299 185.37782402 156.13480817 188.33179138 156.17700195 192.99682617 C156.19625481 194.84971504 156.19625481 194.84971504 156.21589661 196.74003601 C156.22406638 198.09100949 156.23150966 199.44198754 156.23828125 200.79296875 C156.24235678 201.47528376 156.2464323 202.15759876 156.25063133 202.86058998 C156.27147861 206.4748466 156.28578388 210.08906544 156.29516602 213.70336914 C156.30620427 217.42113299 156.34057704 221.13829398 156.38033772 224.85584545 C156.40659513 227.72735134 156.41486604 230.59871584 156.41844749 233.47033119 C156.42329306 234.83976609 156.43484876 236.20919554 156.45348549 237.57851219 C156.55335823 245.40551869 156.5315201 251.43434635 152 258 C146.67468626 261.2136643 140.59941308 260.36868193 134.5625 260.375 C133.33466797 260.39949219 132.10683594 260.42398437 130.84179688 260.44921875 C129.65779297 260.45308594 128.47378906 260.45695312 127.25390625 260.4609375 C126.17439697 260.46915527 125.0948877 260.47737305 123.98266602 260.48583984 C120.23120415 259.87477255 118.64333981 258.70197799 116 256 C113.75907008 252.02009836 113.76630045 248.45969724 113.8046875 243.94921875 C113.8075174 243.29041214 113.81034729 242.63160553 113.81326294 241.95283508 C113.82439076 239.86419938 113.84948052 237.77600444 113.875 235.6875 C113.88503941 234.26498018 113.89416358 232.8424536 113.90234375 231.41992188 C113.92430553 227.94647319 113.95878354 224.47327967 114 221 C110.37 221 106.74 221 103 221 C103.04640625 221.79921875 103.0928125 222.5984375 103.140625 223.421875 C103.52993881 235.2681382 100.90742937 245.885742 93 255 C88.24876504 259.27340678 84.2363494 262.11495828 77.69340515 262.14044189 C76.81446594 262.14615204 75.93552673 262.15186218 75.029953 262.15774536 C73.58752983 262.15942215 73.58752983 262.15942215 72.1159668 262.16113281 C71.10104156 262.16609772 70.08611633 262.17106262 69.04043579 262.17617798 C65.67668992 262.19080496 62.31299122 262.19760256 58.94921875 262.203125 C56.61375426 262.20887605 54.27828978 262.21463379 51.94282532 262.22039795 C47.04269185 262.23090949 42.1425748 262.23675115 37.24243164 262.24023438 C30.96427671 262.24571908 24.68633867 262.26974615 18.40825176 262.29820633 C13.58268094 262.31683228 8.75716235 262.3220383 3.93155861 262.32357025 C1.6171125 262.32659745 -0.69733268 262.33462819 -3.01174355 262.34775543 C-6.25059115 262.36481445 -9.48890887 262.36293579 -12.7277832 262.35644531 C-13.68332596 262.3656601 -14.63886871 262.37487488 -15.62336731 262.3843689 C-22.29146118 262.34252115 -26.54837842 261.21813381 -31.625 256.625 C-32.40875 255.75875 -33.1925 254.8925 -34 254 C-35.0209375 252.88625 -35.0209375 252.88625 -36.0625 251.75 C-41.25231996 244.38380393 -43.15282515 237.12968948 -43.0625 228.1875 C-43.05347656 227.02605469 -43.04445313 225.86460937 -43.03515625 224.66796875 C-43.02355469 223.78753906 -43.01195312 222.90710938 -43 222 C-46.3 222 -49.6 222 -53 222 C-52.97905273 222.71542969 -52.95810547 223.43085938 -52.93652344 224.16796875 C-52.85279167 227.44516652 -52.80115949 230.72213841 -52.75 234 C-52.71648437 235.12535156 -52.68296875 236.25070312 -52.6484375 237.41015625 C-52.56643122 244.42169297 -53.03624384 249.1236622 -57 255 C-62.05003306 258.40878986 -68.59953175 257.36889014 -74.4375 257.375 C-75.66533203 257.39949219 -76.89316406 257.42398437 -78.15820312 257.44921875 C-79.34220703 257.45308594 -80.52621094 257.45695312 -81.74609375 257.4609375 C-82.82560303 257.46915527 -83.9051123 257.47737305 -85.01733398 257.48583984 C-88.76879585 256.87477255 -90.35666019 255.70197799 -93 253 C-94.79457527 249.33382464 -95.27137784 246.31086537 -95.35058594 242.25097656 C-95.37691101 241.11919983 -95.40323608 239.9874231 -95.43035889 238.8213501 C-95.4481842 237.60671082 -95.46600952 236.39207153 -95.484375 235.140625 C-95.5084845 233.88167419 -95.53259399 232.62272339 -95.55743408 231.32562256 C-95.60570594 228.66267297 -95.65004673 225.99999681 -95.68798828 223.33691406 C-95.73692871 219.94654791 -95.80408776 216.55683534 -95.87673569 213.16690445 C-95.94382115 209.90831615 -95.99453167 206.64947832 -96.046875 203.390625 C-96.08575836 201.58081146 -96.08575836 201.58081146 -96.12542725 199.73443604 C-96.33179714 182.51664095 -96.33179714 182.51664095 -91 176 C-87.455489 174.26431727 -84.58186682 173.74415412 -80.65625 173.734375 C-79.65722656 173.73179687 -78.65820312 173.72921875 -77.62890625 173.7265625 C-76.59636719 173.73429688 -75.56382812 173.74203125 -74.5 173.75 C-73.46746094 173.74226562 -72.43492187 173.73453125 -71.37109375 173.7265625 C-70.37207031 173.72914063 -69.37304688 173.73171875 -68.34375 173.734375 C-67.43818359 173.73663086 -66.53261719 173.73888672 -65.59960938 173.74121094 C-61.27843668 174.17138027 -58.69991375 175.24176011 -55.75 178.4375 C-53.14344102 182.25424708 -52.87847073 185.03096786 -52.90234375 189.54296875 C-52.90556641 190.61611328 -52.90878906 191.68925781 -52.91210938 192.79492188 C-52.92467773 194.47424805 -52.92467773 194.47424805 -52.9375 196.1875 C-52.94201172 197.31865234 -52.94652344 198.44980469 -52.95117188 199.61523438 C-52.96296502 202.41020927 -52.9794235 205.2050782 -53 208 C-49.7 208 -46.4 208 -43 208 C-43.0169693 206.49822205 -43.0339386 204.99644409 -43.05142212 203.44915771 C-43.21028898 189.26662795 -43.35808078 175.08403022 -43.49477577 160.90127182 C-43.56532544 153.61054021 -43.63977814 146.3198886 -43.72363281 139.02929688 C-43.79676631 132.66995699 -43.86235903 126.31059009 -43.91914403 119.95108247 C-43.94942883 116.58816657 -43.98444555 113.22546728 -44.02626419 109.86266327 C-44.07246829 106.09563864 -44.10534399 102.328708 -44.13525391 98.56152344 C-44.1517952 97.46387665 -44.16833649 96.36622986 -44.18537903 95.23532104 C-44.25827077 81.81429958 -42.26969825 69.75462678 -33.625 59.0625 C-24.88283536 52.19365636 -18.2385017 50.83832012 -7.2265625 50.90234375 C-6.3028183 50.9037587 -5.3790741 50.90517365 -4.42733765 50.90663147 C-1.49319138 50.91220391 1.44087701 50.92475131 4.375 50.9375 C6.37109264 50.94251856 8.36718649 50.94708085 10.36328125 50.95117188 C15.24221725 50.96216431 20.12109545 50.9794099 25 51 C25 47.37 25 43.74 25 40 C22.92138672 40.08701172 22.92138672 40.08701172 20.80078125 40.17578125 C18.9713879 40.22268877 17.14195806 40.26818787 15.3125 40.3125 C14.40048828 40.35439453 13.48847656 40.39628906 12.54882812 40.43945312 C11.66259766 40.45556641 10.77636719 40.47167969 9.86328125 40.48828125 C9.05157471 40.51446533 8.23986816 40.54064941 7.40356445 40.56762695 C3.6828146 39.68893285 2.26622777 38.03157662 0 35 C-0.43900428 32.07613709 -0.58958897 29.75959055 -0.48828125 26.85546875 C-0.48120651 26.08568192 -0.47413177 25.31589508 -0.46684265 24.52278137 C-0.43896925 22.07667697 -0.37625137 19.63290616 -0.3125 17.1875 C-0.28740768 15.52412173 -0.26459613 13.86070738 -0.24414062 12.19726562 C-0.18916671 8.13061843 -0.10294927 4.06570411 0 0 Z M-28.3125 65 C-36.52809322 75.81719774 -36.15006894 89.37522811 -36.14526367 102.29980469 C-36.14862228 103.60672272 -36.1519809 104.91364075 -36.15544128 106.26016235 C-36.16421972 109.82237688 -36.1666168 113.38456734 -36.16725707 116.94679165 C-36.16797114 119.17934604 -36.17011219 121.41189444 -36.17275429 123.64444733 C-36.18198773 131.45307296 -36.18609174 139.26168159 -36.18530273 147.0703125 C-36.18470266 154.31672375 -36.19524586 161.56306039 -36.2110464 168.80945277 C-36.22417879 175.05777226 -36.22948424 181.30606753 -36.22884732 187.55440068 C-36.22859399 191.27427759 -36.23135352 194.99408811 -36.24202538 198.71395111 C-36.25362527 202.87022392 -36.24892487 207.02633249 -36.24291992 211.18261719 C-36.24853943 212.39343964 -36.25415894 213.60426208 -36.25994873 214.85177612 C-36.21327705 227.63869669 -35.62220837 241.25654792 -26.375 251.0625 C-23.19499451 253.65671501 -20.78363558 254.12425807 -16.80729675 254.14717102 C-15.95360001 254.15432632 -15.09990326 254.16148163 -14.22033691 254.16885376 C-13.28677368 254.17154266 -12.35321045 254.17423157 -11.39135742 254.17700195 C-10.4056929 254.18357315 -9.42002838 254.19014435 -8.40449524 254.19691467 C-5.13815232 254.21664782 -1.87185536 254.2283097 1.39453125 254.23828125 C2.50961248 254.24235678 3.62469372 254.2464323 4.77356529 254.25063133 C10.67431834 254.27149108 16.57504813 254.28579383 22.47583008 254.29516602 C28.57245198 254.30623656 34.66870952 254.34064452 40.76520252 254.38033772 C45.45180443 254.4064714 50.13831904 254.41485493 54.82498741 254.41844749 C57.07246044 254.423321 59.31992938 254.43495662 61.56733131 254.45348549 C64.71290688 254.47780953 67.85753318 254.47692404 71.00317383 254.4699707 C71.93066437 254.48278076 72.85815491 254.49559082 73.81375122 254.50878906 C79.37800938 254.46397446 82.59937081 253.74113766 87 250 C88.87650539 247.72140847 88.87650539 247.72140847 90.25 245.1875 C90.72953125 244.37667969 91.2090625 243.56585938 91.703125 242.73046875 C94.2394449 237.39044583 95.24949291 232.34794932 95.26742554 226.46173096 C95.27595551 225.18905365 95.28448547 223.91637634 95.29327393 222.60513306 C95.29257504 221.21234118 95.29165205 219.81954941 95.29052734 218.42675781 C95.29651799 216.94605167 95.30332477 215.46534863 95.31088257 213.98464966 C95.32849685 209.97617214 95.33323606 205.9677801 95.33451414 201.95926762 C95.33593908 199.45034213 95.3402152 196.94143814 95.34550858 194.43251801 C95.36399489 185.6665866 95.37218109 176.90071588 95.37060547 168.13476562 C95.36940498 159.98509751 95.39049263 151.83569461 95.4220928 143.68609357 C95.44831397 136.67181323 95.4589703 129.6576192 95.45769465 122.64329028 C95.45718666 118.46171656 95.46277887 114.28037863 95.48405075 110.09885406 C95.5035316 106.162139 95.50349113 102.22588224 95.48901749 98.28915024 C95.4869403 96.85213164 95.4915646 95.41508361 95.5037384 93.97811508 C95.5908882 82.96977505 94.2577388 72.75197914 87 64 C80.49642685 58.76886507 74.07854937 58.84979666 66.1081543 58.83886719 C65.23415985 58.83390228 64.36016541 58.82893738 63.45968628 58.82382202 C60.58118896 58.80927069 57.70274674 58.80241045 54.82421875 58.796875 C52.81411234 58.79111814 50.80400594 58.78536048 48.79389954 58.77960205 C44.58338161 58.76911232 40.37288266 58.76325627 36.16235352 58.75976562 C30.78248793 58.7542826 25.40287562 58.73024994 20.02308941 58.70179367 C15.87166116 58.68311821 11.72029337 58.6779591 7.56882668 58.67642975 C5.58620633 58.67341422 3.60358676 58.66542306 1.62100792 58.65224457 C-1.15951147 58.63507981 -3.939419 58.63708955 -6.7199707 58.64355469 C-7.93367088 58.62973251 -7.93367088 58.62973251 -9.17189026 58.6156311 C-16.24967307 58.66686299 -23.1861835 59.78591676 -28.3125 65 Z " fill="#000000" transform="translate(417,76)"/>
<path d="M0 0 C0.91644287 0.00523682 1.83288574 0.01047363 2.77709961 0.01586914 C3.76645508 0.0190918 4.75581055 0.02231445 5.77514648 0.02563477 C6.81606445 0.03401367 7.85698242 0.04239258 8.92944336 0.05102539 C10.49662109 0.05779297 10.49662109 0.05779297 12.09545898 0.06469727 C14.68600996 0.07652627 17.27644895 0.0930085 19.86694336 0.11352539 C21.90931295 3.49805706 22.119777 6.10556499 22.12573242 10.02783203 C22.13203674 11.21909195 22.13834106 12.41035187 22.14483643 13.63771057 C22.14078796 14.92008102 22.1367395 16.20245148 22.13256836 17.52368164 C22.13448181 18.84266953 22.13639526 20.16165741 22.1383667 21.52061462 C22.1413115 24.30887549 22.13704047 27.09700799 22.12768555 29.88525391 C22.11628016 33.45870436 22.1228612 37.03185473 22.13483047 40.60529423 C22.14379395 44.01561412 22.1375193 47.42585322 22.13256836 50.83618164 C22.13661682 52.12057632 22.14066528 53.40497101 22.14483643 54.72828674 C22.1385321 55.9163945 22.13222778 57.10450226 22.12573242 58.32861328 C22.12334564 59.89936363 22.12334564 59.89936363 22.12091064 61.50184631 C21.86694336 64.11352539 21.86694336 64.11352539 19.86694336 67.11352539 C17.52856445 67.45410156 17.52856445 67.45410156 14.64038086 67.40649414 C13.60913086 67.39682617 12.57788086 67.3871582 11.51538086 67.37719727 C9.8950293 67.33949219 9.8950293 67.33949219 8.24194336 67.30102539 C7.15397461 67.28749023 6.06600586 67.27395508 4.94506836 67.26000977 C2.25186927 67.22457294 -0.44035038 67.1751687 -3.13305664 67.11352539 C-4.92156208 60.21570213 -5.42745727 53.9068105 -5.39868164 46.79711914 C-5.40059509 45.74122086 -5.40250854 44.68532257 -5.40447998 43.59742737 C-5.40583372 41.37793742 -5.40219431 39.15843933 -5.39379883 36.93896484 C-5.38307722 33.55751653 -5.39372753 30.17659813 -5.40649414 26.79516602 C-5.40517261 24.62914923 -5.40261035 22.46313277 -5.39868164 20.29711914 C-5.4027301 19.29482773 -5.40677856 18.29253632 -5.41094971 17.25987244 C-5.29844379 0.2819934 -5.29844379 0.2819934 0 0 Z " fill="#FFFFFF" transform="translate(543.133056640625,260.886474609375)"/>
<path d="M0 0 C0.91644287 0.00523682 1.83288574 0.01047363 2.77709961 0.01586914 C3.76645508 0.0190918 4.75581055 0.02231445 5.77514648 0.02563477 C6.81606445 0.03401367 7.85698242 0.04239258 8.92944336 0.05102539 C10.49662109 0.05779297 10.49662109 0.05779297 12.09545898 0.06469727 C14.68600996 0.07652627 17.27644895 0.0930085 19.86694336 0.11352539 C21.90931295 3.49805706 22.119777 6.10556499 22.12573242 10.02783203 C22.13203674 11.21909195 22.13834106 12.41035187 22.14483643 13.63771057 C22.14078796 14.92008102 22.1367395 16.20245148 22.13256836 17.52368164 C22.13448181 18.84266953 22.13639526 20.16165741 22.1383667 21.52061462 C22.1413115 24.30887549 22.13704047 27.09700799 22.12768555 29.88525391 C22.11628016 33.45870436 22.1228612 37.03185473 22.13483047 40.60529423 C22.14379395 44.01561412 22.1375193 47.42585322 22.13256836 50.83618164 C22.13661682 52.12057632 22.14066528 53.40497101 22.14483643 54.72828674 C22.1385321 55.9163945 22.13222778 57.10450226 22.12573242 58.32861328 C22.12334564 59.89936363 22.12334564 59.89936363 22.12091064 61.50184631 C21.86694336 64.11352539 21.86694336 64.11352539 19.86694336 67.11352539 C17.52856445 67.45410156 17.52856445 67.45410156 14.64038086 67.40649414 C13.60913086 67.39682617 12.57788086 67.3871582 11.51538086 67.37719727 C9.8950293 67.33949219 9.8950293 67.33949219 8.24194336 67.30102539 C7.15397461 67.28749023 6.06600586 67.27395508 4.94506836 67.26000977 C2.25186927 67.22457294 -0.44035038 67.1751687 -3.13305664 67.11352539 C-4.92156208 60.21570213 -5.42745727 53.9068105 -5.39868164 46.79711914 C-5.40059509 45.74122086 -5.40250854 44.68532257 -5.40447998 43.59742737 C-5.40583372 41.37793742 -5.40219431 39.15843933 -5.39379883 36.93896484 C-5.38307722 33.55751653 -5.39372753 30.17659813 -5.40649414 26.79516602 C-5.40517261 24.62914923 -5.40261035 22.46313277 -5.39868164 20.29711914 C-5.4027301 19.29482773 -5.40677856 18.29253632 -5.41094971 17.25987244 C-5.29844379 0.2819934 -5.29844379 0.2819934 0 0 Z " fill="#FFFFFF" transform="translate(334.133056640625,257.886474609375)"/>
</svg>
